<svg width="32" height="32" viewBox="0 0 32 32" fill="none" xmlns="http://www.w3.org/2000/svg">
<path d="M3.00024 21.7468L6.01841 19.95C6.60061 20.9659 7.13067 21.8251 8.40127 21.8251C9.61878 21.8251 10.3868 21.3587 10.3868 19.533V7.13492H14.0934V19.5843C14.0934 23.3607 11.8433 25.08 8.56057 25.08C7.40004 25.1418 6.2477 24.8563 5.25532 24.2611C4.26295 23.666 3.47612 22.79 3.00024 21.7468ZM16.1074 21.355L19.1256 19.6356C19.4611 20.3054 19.982 20.8685 20.6283 21.2601C21.2746 21.6517 22.02 21.8559 22.779 21.8494C24.3151 21.8494 25.2937 21.0938 25.2937 20.0517C25.2937 18.8016 24.2876 18.3585 22.5932 17.6262L21.6696 17.24C18.9956 16.1205 17.2215 14.7137 17.2215 11.7443C17.2215 9.0091 19.3398 6.92596 22.6491 6.92596C23.7214 6.8495 24.7928 7.08537 25.7297 7.60414C26.6666 8.12291 27.4274 8.90162 27.9174 9.8431L25.031 11.6669C24.8416 11.1996 24.5123 10.7999 24.0867 10.5208C23.6612 10.2418 23.1595 10.0965 22.6482 10.1043C22.4252 10.0821 22.2001 10.1059 21.987 10.1741C21.774 10.2424 21.5777 10.3536 21.4108 10.5006C21.2438 10.6476 21.1099 10.8273 21.0175 11.0281C20.9251 11.2289 20.8762 11.4465 20.8741 11.6669C20.8741 12.7612 21.5625 13.2034 23.1498 13.8807L24.0762 14.2715C27.2271 15.6 29.0002 16.9545 29.0002 20.0013C29.0002 23.2832 26.3794 25.0809 22.8587 25.0809C19.4167 25.0809 17.1931 23.4652 16.1074 21.355Z" fill="#E2E4E9"/>
</svg>
