<svg width="32" height="32" viewBox="0 0 32 32" fill="none" xmlns="http://www.w3.org/2000/svg">
<path d="M26.5942 8.76103L17.1124 3.25544C16.5145 2.91485 15.7359 2.91485 15.1332 3.25544L5.55015 8.76103C4.93304 9.11603 4.49634 9.78324 4.49634 10.4969V21.4934C4.49634 22.2071 4.94444 22.8745 5.56155 23.2314L8.09341 24.6695C9.30354 25.2655 9.73121 25.2655 10.2819 25.2655C12.0736 25.2655 13.0971 24.182 13.0971 22.2922V11.4359C13.0971 11.2826 13.0174 11.0544 12.8669 11.0544H11.6578C11.5047 11.0544 11.162 11.2826 11.162 11.4357V22.292C11.162 23.1297 10.4042 23.9634 8.9881 23.2553L6.37196 21.7474C6.28079 21.6979 6.2165 21.5984 6.2165 21.4934V10.4969C6.2165 10.3932 6.33583 10.2892 6.42765 10.2361L15.9797 4.73994C16.0689 4.68941 16.2001 4.68941 16.2891 4.73994L25.7246 10.2348C25.8149 10.2892 25.7831 10.39 25.7831 10.4969V21.4934C25.7831 21.5984 25.8224 21.7005 25.7332 21.751L16.2538 27.2504C16.1726 27.2992 16.0717 27.2992 15.9827 27.2504L13.5515 25.7992C13.4782 25.7566 13.3911 25.7414 13.3208 25.7807C12.6443 26.1641 12.5196 26.2151 11.8851 26.435C11.729 26.4894 11.4987 26.5838 11.9732 26.8498L15.1551 28.7321C15.4589 28.9075 15.8035 28.9999 16.1543 29C16.5074 29 16.8531 28.9084 17.1578 28.7321L26.5939 23.2314C27.211 22.8719 27.5035 22.2071 27.5035 21.4934V10.4969C27.5035 9.78324 27.211 9.11775 26.5942 8.76103ZM19.0983 19.7509C16.577 19.7509 16.0216 19.0553 15.8365 17.8015C15.815 17.6665 15.7004 17.505 15.563 17.505H14.3307C14.1783 17.505 14.0557 17.6899 14.0557 17.8418C14.0557 19.4471 14.9285 21.3922 19.0986 21.3922C22.1172 21.3922 23.8479 20.2192 23.8479 18.1434C23.8479 16.0853 22.4574 15.5451 19.5299 15.1577C16.5708 14.7665 16.2702 14.5689 16.2702 13.8757C16.2702 13.3042 16.5248 12.5419 18.7158 12.5419C20.6736 12.5419 21.3952 12.9621 21.6921 14.2817C21.7175 14.4057 21.8308 14.4948 21.9588 14.4948H23.196C23.2721 14.4948 23.3448 14.464 23.3981 14.4096C23.4497 14.3511 23.477 14.2778 23.4701 14.1991C23.2785 11.9268 21.7689 10.8678 18.7156 10.8678C15.9997 10.8678 14.3795 12.0147 14.3795 13.9372C14.3795 16.0225 15.9915 16.5987 18.5986 16.8565C21.7175 17.1623 21.96 17.6181 21.96 18.2316C21.96 19.297 21.1047 19.7509 19.0983 19.7509Z" fill="#E2E4E9"/>
</svg>
