<svg width="32" height="32" viewBox="0 0 32 32" fill="none" xmlns="http://www.w3.org/2000/svg">
<path d="M16.7479 25.2578C16.5168 25.0535 16.2757 24.8484 16.0453 24.6213C15.8612 24.7915 15.6887 24.951 15.5061 25.1097C13.2266 27.0748 10.877 27.8928 9.48415 27.0976C8.13679 26.3365 7.71232 24.0881 8.25157 21.2594C8.30909 20.9528 8.37817 20.6462 8.4588 20.3396C8.2169 20.2684 7.98657 20.2029 7.75623 20.126C4.88816 19.147 3 17.5572 3 15.9666C3 14.4338 4.76182 12.9458 7.51356 11.9917C7.82171 11.8892 8.1468 11.7874 8.48114 11.6963C8.4041 11.4008 8.34324 11.1167 8.28547 10.8419C7.70924 7.97053 8.11213 5.67656 9.47106 4.90408C10.887 4.08603 13.2366 4.96104 15.5962 7.01649C15.7341 7.14108 15.8728 7.27778 16.0222 7.41377C16.241 7.20943 16.4482 7.0051 16.667 6.82355C18.9011 4.90123 21.1228 4.09742 22.4817 4.8699C23.8977 5.66446 24.3129 8.1179 23.6797 11.1509C23.645 11.3445 23.6026 11.5261 23.5533 11.7205C23.8414 11.8002 24.1288 11.8906 24.3938 11.9818C27.2033 12.9358 29.0229 14.4238 28.9998 15.9908C28.9998 17.5921 27.0538 19.1712 24.0695 20.148C23.9084 20.1936 23.7474 20.2506 23.5857 20.2954C23.655 20.5225 23.7004 20.7496 23.7467 20.9768C24.3452 23.9186 23.8846 26.3265 22.4917 27.1218C22.126 27.3253 21.7053 27.429 21.2784 27.4208C20.0019 27.4187 18.3811 26.6419 16.7479 25.2578ZM19.0051 21.0893C18.3437 22.0402 17.6167 22.9507 16.8288 23.8154C17.0476 24.029 17.2664 24.2248 17.4852 24.4063C19.3849 26.0189 21.1351 26.6212 21.9533 26.1556C22.2031 25.9568 22.4073 25.7136 22.5536 25.4405C22.6999 25.1674 22.7855 24.87 22.8053 24.5658C22.9715 23.4387 22.9246 22.2934 22.6666 21.1811C22.632 20.9768 22.5896 20.7724 22.5287 20.5567C21.3686 20.8077 20.1913 20.9856 19.0051 21.0893ZM9.3555 21.4531C8.88404 23.8738 9.22916 25.6779 10.0488 26.1442C10.3392 26.2564 10.6528 26.3082 10.9672 26.2958C11.2817 26.2835 11.5893 26.2075 11.8684 26.073C12.9542 25.6513 13.943 25.0421 14.7819 24.2782C14.9545 24.1415 15.1155 23.9827 15.2888 23.8239C14.4836 22.959 13.7374 22.0485 13.0548 21.0978C11.8731 21.0066 10.6996 20.8401 9.5427 20.5994C9.47106 20.8963 9.41328 21.1797 9.3555 21.4531ZM16.0577 23.0429C16.5646 22.4861 17.0707 21.8731 17.5776 21.1918C17.0707 21.2146 16.5415 21.226 16.0114 21.226C15.4814 21.226 14.9869 21.2146 14.4915 21.1918C15.0092 21.861 15.5284 22.4861 16.0577 23.0429ZM13.6387 11.9575C13.2012 12.5819 12.7751 13.2391 12.3722 13.934C11.9693 14.6153 11.6019 15.3081 11.2668 15.9987C11.6127 16.68 11.9809 17.3728 12.3838 18.0776C12.7867 18.759 13.2127 19.4304 13.6503 20.0647C14.4099 20.1103 15.2049 20.1359 16.0107 20.1359C16.8165 20.1359 17.6223 20.1131 18.3942 20.0569C18.8086 19.4325 19.2346 18.7618 19.6383 18.0691C20.042 17.3763 20.421 16.6722 20.7553 15.9908C20.421 15.3209 20.0412 14.6281 19.6383 13.9347C19.2354 13.2412 18.8094 12.5819 18.3834 11.9583C17.613 11.9013 16.8172 11.8671 16.0114 11.8671C15.2056 11.8671 14.4106 11.9006 13.6387 11.9575ZM9.83929 19.5557C10.6293 19.7225 11.429 19.8477 12.2344 19.9309C11.9578 19.4994 11.682 19.0673 11.417 18.613C11.1635 18.1702 10.9101 17.7273 10.6798 17.2845C10.3462 18.0563 10.0696 18.8188 9.83929 19.5557ZM20.6051 18.6016C20.3401 19.0559 20.0751 19.4873 19.8109 19.9081C20.6283 19.8134 21.4395 19.677 22.2406 19.4994C21.9905 18.7327 21.6984 17.9783 21.3655 17.2389C21.1236 17.6932 20.8701 18.1474 20.6051 18.6016ZM7.87024 13.0362C5.5214 13.8542 4.10547 15.0454 4.10547 15.978C4.15025 16.2781 4.25871 16.567 4.42462 16.8282C4.59053 17.0895 4.81063 17.3178 5.07228 17.5002C5.97097 18.1987 7.00155 18.7377 8.11214 19.09C8.31936 19.1612 8.53815 19.2154 8.75693 19.2837C9.11063 18.1665 9.53743 17.0702 10.035 16.0008C9.53647 14.9498 9.1134 13.8695 8.76849 12.7671C8.45777 12.8439 8.15836 12.9337 7.87024 13.0362ZM21.9987 15.978C22.5097 17.0338 22.9471 18.1187 23.3083 19.226C23.4586 19.1805 23.608 19.1349 23.7459 19.0893C26.3135 18.2492 27.9059 16.9655 27.9143 15.9659C27.9143 15.0347 26.4406 13.83 24.034 13.0127C23.7921 12.9337 23.5279 12.8539 23.2637 12.7742C22.9148 13.8655 22.4923 14.9355 21.9987 15.978ZM20.5943 13.3658C20.8593 13.8201 21.1128 14.2636 21.3424 14.7065C21.6623 13.9827 21.939 13.2433 22.1713 12.4915C21.3892 12.3159 20.5974 12.1795 19.7993 12.0829C20.0759 12.5022 20.3409 12.923 20.5943 13.3658ZM9.85085 12.4823C10.082 13.2092 10.3577 13.9475 10.6798 14.7079C10.9109 14.265 11.1635 13.8222 11.417 13.3793C11.6704 12.9365 11.9347 12.5051 12.2112 12.0843C11.3823 12.1847 10.5996 12.3207 9.85085 12.4823ZM17.3927 7.65512C17.197 7.82528 17.0014 8.00684 16.8049 8.1891C17.6045 9.0431 18.3394 9.94707 19.0043 10.8946C20.1761 10.9991 21.3382 11.1814 22.4817 11.4399C22.528 11.2698 22.5588 11.0989 22.5973 10.9288C23.1365 8.31654 22.8045 6.31734 21.9294 5.81825C21.7373 5.7186 21.5194 5.66936 21.2992 5.67585C20.3586 5.67158 18.9149 6.34866 17.3927 7.65299V7.65512ZM10.0234 5.84673C9.20605 6.31235 8.88327 8.17486 9.36706 10.6283C9.42484 10.8896 9.48261 11.1502 9.55117 11.4229C10.6962 11.1738 11.8579 10.9954 13.0286 10.8889C13.6959 9.94018 14.4347 9.03612 15.2395 8.18341C15.1132 8.0581 14.9745 7.9449 14.8482 7.83098C13.2458 6.43054 11.7051 5.69152 10.699 5.69152C10.4626 5.68406 10.2286 5.73782 10.0234 5.84673ZM17.5537 10.7985C17.0789 10.1635 16.5666 9.55311 16.0192 8.97013C15.5015 9.52618 14.983 10.1399 14.4784 10.7985C14.9853 10.7757 15.4915 10.7643 16.0099 10.7643C16.5284 10.7643 17.0468 10.7735 17.5537 10.7985ZM13.7081 16.0236C13.6973 15.7317 13.7489 15.4407 13.86 15.1672C13.9711 14.8938 14.1396 14.6433 14.3556 14.4302C14.5717 14.217 14.8311 14.0453 15.1191 13.925C15.4071 13.8047 15.7179 13.738 16.0338 13.7289C16.6712 13.749 17.2739 14.0018 17.7099 14.432C18.1458 14.8621 18.3795 15.4345 18.3595 16.0236C18.3801 16.6132 18.1466 17.1862 17.7104 17.6168C17.2742 18.0475 16.6709 18.3005 16.033 18.3204C15.717 18.3113 15.406 18.2446 15.1179 18.1241C14.8298 18.0037 14.5703 17.8318 14.3543 17.6184C14.1382 17.405 13.9699 17.1542 13.8591 16.8806C13.7482 16.6069 13.6968 16.3157 13.7081 16.0236Z" fill="#E2E4E9"/>
</svg>
